<?xml version="1.0" encoding="utf-8"?>
<!-- Generator: Adobe Illustrator 20.1.0, SVG Export Plug-In . SVG Version: 6.00 Build 0)  -->
<svg version="1.1" id="Layer_1" xmlns="http://www.w3.org/2000/svg" xmlns:xlink="http://www.w3.org/1999/xlink" x="0px" y="0px"
	 viewBox="0 0 148 120" style="enable-background:new 0 0 148 120;" xml:space="preserve">
<style type="text/css">
	.st0{fill:#344659;}
</style>
<g>
	<g>
		<path class="st0" d="M98.1,62.5c0.4-5.4-2.5-8.5-5.1-9.5c-0.2-0.1-0.4-0.2-0.6-0.2c0,0-0.1,0-0.2,0c-0.4-0.1-0.8-0.2-1.2-0.2H57.8
			c-0.4,0-0.7,0.1-1.1,0.2l0.1-0.1c-2.8,0-6.7,4.1-6.9,10l-0.8,35.7c0,2.2,2.3,4,5.1,4c2.6,0,4.7-1.3,4.9-3.3l1.3,9.7
			c0,2.4,9.2,3.1,11.6,3.1h2.4c2.4,0,12.5,0.3,12.3-3.1l2.5-14.5l-0.4,4.2c0,2.2,2.2,3.7,5,3.7s5-1.8,5.1-4L98.1,62.5z"/>
		<circle class="st0" cx="73.3" cy="28.8" r="20.6"/>
	</g>
	<g>
		<path class="st0" d="M137.5,61.7c0.3-3.7-1.7-5.8-3.5-6.5c-0.1-0.1-0.3-0.1-0.4-0.1h-0.1c-0.3-0.1-0.5-0.1-0.8-0.1H110
			c-0.3,0-0.5,0-0.8,0.1V55c-1.9,0-4.6,2.8-4.7,6.8L104,86.2c0,1.5,1.6,2.8,3.5,2.7c1.8,0,3.2-0.9,3.4-2.2l0.9,6.7
			c0,1.7,6.3,2.1,7.9,2.1h1.6c1.7,0,8.6,0.2,8.4-2.1l1.7-9.9l-0.2,2.9c0,1.5,1.5,2.5,3.4,2.6c1.9,0,3.4-1.2,3.5-2.7L137.5,61.7z"/>
		<circle class="st0" cx="120.5" cy="38.6" r="14.1"/>
	</g>
	<g>
		<path class="st0" d="M43.5,61.7c0.3-3.7-1.7-5.8-3.5-6.5c-0.1-0.1-0.3-0.1-0.4-0.1h-0.1C39.2,55,39,55,38.7,55H15.9
			c-0.3,0-0.5,0-0.8,0.1V55c-1.9,0-4.6,2.8-4.7,6.8L10,86.2c0,1.5,1.6,2.8,3.5,2.7c1.8,0,3.2-0.9,3.4-2.2l0.9,6.7
			c0,1.7,6.3,2.1,7.9,2.1h1.6c1.7,0,8.6,0.2,8.4-2.1l1.7-9.9l-0.2,2.9c0,1.5,1.5,2.5,3.4,2.6c1.9,0,3.4-1.2,3.5-2.7L43.5,61.7z"/>
		<circle class="st0" cx="26.5" cy="38.6" r="14.1"/>
	</g>
</g>
</svg>
