<?xml version="1.0" encoding="utf-8"?>
<!-- Generator: Adobe Illustrator 20.1.0, SVG Export Plug-In . SVG Version: 6.00 Build 0)  -->
<svg version="1.1" id="Layer_1" xmlns="http://www.w3.org/2000/svg" xmlns:xlink="http://www.w3.org/1999/xlink" x="0px" y="0px"
	 viewBox="0 0 103.2 154" style="enable-background:new 0 0 103.2 154;" xml:space="preserve">
<style type="text/css">
	.st0{fill:none;}
	.st1{fill:#E0B1D2;}
	.st2{fill:#A94E9D;}
	.st3{fill:#354759;}
	.st4{fill:#FFFFFF;}
</style>
<g>
	<g>
		<path class="st0" d="M80.9,48.2H22.2c0,0,0,0.1,0,0.1H81C81,48.3,80.9,48.3,80.9,48.2z"/>
		<path class="st1" d="M79,42.5c-0.3-0.8-0.7-1.6-1.1-2.4H25.2c-0.4,0.8-0.7,1.6-1.1,2.4c-0.8,2.1-1.5,4.2-1.9,6.5h58.7
			C80.5,46.7,79.8,44.5,79,42.5z"/>
		<path class="st1" d="M56.6,24.9H46.5c-3.4,0.6-6.6,1.7-9.5,3.3h29C63.2,26.6,60,25.4,56.6,24.9z"/>
		<path class="st2" d="M66.1,28.2h-29c-5,2.8-9.1,6.9-11.8,11.9h52.7C75.2,35.1,71.1,30.9,66.1,28.2z"/>
		<path class="st2" d="M81,48.4H22.2c-0.2,0.8-0.3,1.6-0.4,2.4h59.5C81.2,50,81.1,49.1,81,48.4z"/>
		<path class="st1" d="M81.4,51.3c0-0.2,0-0.4-0.1-0.6H21.8c0,0.2-0.1,0.4-0.1,0.6c-0.1,0.7-0.1,1.5-0.1,2.2h60
			C81.5,52.8,81.5,52.1,81.4,51.3z"/>
		<path class="st1" d="M92.6,50.8h-0.2c0,0.3,0,0.5,0.1,0.8C92.5,51.3,92.5,51,92.6,50.8z"/>
		<path class="st1" d="M78.7,67.3H24.5c0.5,1,0.9,1.9,1.5,2.8c0.5,0.8,1,1.5,1.5,2.2h48.2c0.5-0.7,1-1.5,1.5-2.2
			C77.7,69.2,78.2,68.2,78.7,67.3z"/>
		<path class="st2" d="M47.8,84.2c1.2,0.2,2.5,0.2,3.8,0.2s2.5-0.1,3.8-0.2c8.3-1,15.6-5.5,20.4-11.9H27.5
			C32.2,78.7,39.5,83.2,47.8,84.2z"/>
		<path class="st1" d="M63.8,15.3c-3.9-1.4-8-2.2-12.4-2.2c-5.4,0-10.6,1.2-15.2,3.4c4.8-1.9,10-3,15.4-3
			C55.8,13.4,59.9,14.1,63.8,15.3z"/>
		<path class="st1" d="M51.6,24.4c-1.7,0-3.4,0.2-5,0.4h10.1C55,24.6,53.3,24.4,51.6,24.4z"/>
		<path class="st2" d="M80.8,61.1c0.2-1,0.4-2.1,0.5-3.1c0.1-0.9,0.2-1.8,0.2-2.7c0-0.3,0-0.6,0-0.9c0-0.3,0-0.6,0-0.9h-60
			c0,0.3,0,0.6,0,0.9c0,0.3,0,0.6,0,0.9c0,0.9,0.1,1.8,0.2,2.7c0.1,1.1,0.3,2.1,0.5,3.1c0.5,2.1,1.2,4.2,2.1,6.1h54.2
			C79.6,65.3,80.3,63.3,80.8,61.1z"/>
		<path class="st3" d="M92.4,50.8C90.9,34,79.3,20.1,63.8,15.3c-3.8-1.2-7.9-1.8-12.2-1.8c-5.5,0-10.7,1.1-15.4,3
			c-15,6.1-25.6,20.8-25.6,38c0,7.6,2.1,14.7,5.7,20.8l35.3,65.7l35.3-65.7c3.6-6.1,5.7-13.2,5.7-20.8c0-1,0-1.9-0.1-2.9
			C92.5,51.3,92.4,51,92.4,50.8z M55.3,84.2c-1.2,0.2-2.5,0.2-3.8,0.2s-2.5-0.1-3.8-0.2c-8.3-1-15.6-5.5-20.4-11.9
			c-0.5-0.7-1-1.5-1.5-2.2c-0.5-0.9-1-1.8-1.5-2.8c-0.9-1.9-1.7-4-2.1-6.1c-0.2-1-0.4-2.1-0.5-3.1c-0.1-0.9-0.2-1.8-0.2-2.7
			c0-0.3,0-0.6,0-0.9c0-0.3,0-0.6,0-0.9c0-0.7,0.1-1.5,0.1-2.2c0-0.2,0-0.4,0.1-0.6c0.1-0.8,0.2-1.6,0.4-2.4c0,0,0-0.1,0-0.1
			c0.4-2.1,1.1-4.1,1.9-6c0.3-0.7,0.7-1.5,1.1-2.2c2.7-5,6.9-9.1,11.8-11.9c2.9-1.6,6.1-2.7,9.5-3.3c1.6-0.3,3.3-0.4,5-0.4
			s3.4,0.2,5,0.4c3.4,0.6,6.6,1.7,9.5,3.3c5,2.8,9.1,6.9,11.8,11.9c0.4,0.7,0.7,1.4,1.1,2.2c0.8,1.9,1.5,3.9,1.9,6c0,0,0,0.1,0,0.1
			c0.2,0.8,0.3,1.6,0.4,2.4c0,0.2,0.1,0.4,0.1,0.6c0.1,0.7,0.1,1.5,0.1,2.2c0,0.3,0,0.6,0,0.9c0,0.3,0,0.6,0,0.9
			c0,0.9-0.1,1.8-0.2,2.7c-0.1,1.1-0.3,2.1-0.5,3.1c-0.5,2.1-1.2,4.2-2.1,6.1c-0.5,1-0.9,1.9-1.5,2.8c-0.5,0.8-1,1.5-1.5,2.2
			C70.9,78.7,63.7,83.2,55.3,84.2z"/>
	</g>
	<g>
		<path class="st4" d="M51.6,28.4c1.4,0,2.9,0.1,4.4,0.4c2.9,0.5,5.7,1.5,8.2,2.9c4.3,2.4,7.9,6,10.3,10.3c0.3,0.6,0.6,1.2,0.9,1.9
			c0.7,1.7,1.3,3.4,1.7,5.2c0,0.1,0,0.1,0,0.2c0.1,0.6,0.2,1.3,0.3,2.1l0,0.3c0,0.1,0,0.1,0,0.2c0.1,0.6,0.1,1.2,0.1,1.9l0,0.3
			c0,0.2,0,0.3,0,0.5c0,0.2,0,0.3,0,0.5l0,0.3c0,0.8-0.1,1.6-0.2,2.3c-0.1,0.9-0.3,1.8-0.5,2.7c-0.4,1.8-1,3.6-1.9,5.3
			c-0.5,1-0.9,1.7-1.3,2.4c-0.4,0.7-0.8,1.3-1.3,1.9c-4.2,5.7-10.6,9.4-17.6,10.3c-1.1,0.1-2.2,0.2-3.3,0.2s-2.1-0.1-3.3-0.2
			c-7-0.9-13.4-4.6-17.6-10.3c-0.5-0.6-0.9-1.3-1.3-1.9c-0.4-0.7-0.8-1.5-1.3-2.4c-0.8-1.8-1.5-3.5-1.9-5.3
			c-0.2-0.9-0.4-1.8-0.5-2.7c-0.1-0.8-0.1-1.5-0.2-2.3l0-0.3c0-0.2,0-0.3,0-0.5c0-0.2,0-0.3,0-0.5l0-0.3c0-0.7,0.1-1.4,0.1-1.9
			c0-0.1,0-0.1,0-0.2l0-0.3c0.1-0.8,0.2-1.4,0.3-2.1c0-0.1,0-0.1,0-0.2c0.4-1.8,0.9-3.5,1.7-5.2c0.3-0.7,0.6-1.3,0.9-1.9
			c2.4-4.4,5.9-7.9,10.3-10.3c2.6-1.4,5.3-2.4,8.2-2.9C48.7,28.6,50.1,28.4,51.6,28.4 M51.6,24.4c-1.7,0-3.4,0.2-5,0.4
			c-3.4,0.6-6.6,1.7-9.5,3.3c-5,2.8-9.1,6.9-11.8,11.9c-0.4,0.7-0.7,1.4-1.1,2.2c-0.8,1.9-1.5,3.9-1.9,6c0,0,0,0.1,0,0.1
			c-0.2,0.8-0.3,1.6-0.4,2.4c0,0.2-0.1,0.4-0.1,0.6c-0.1,0.7-0.1,1.5-0.1,2.2c0,0.3,0,0.6,0,0.9c0,0.3,0,0.6,0,0.9
			c0,0.9,0.1,1.8,0.2,2.7c0.1,1.1,0.3,2.1,0.5,3.1c0.5,2.1,1.2,4.2,2.1,6.1c0.5,1,0.9,1.9,1.5,2.8c0.5,0.8,1,1.5,1.5,2.2
			c4.8,6.4,12,10.9,20.4,11.9c1.2,0.2,2.5,0.2,3.8,0.2c1.3,0,2.5-0.1,3.8-0.2c8.3-1,15.6-5.5,20.4-11.9c0.5-0.7,1-1.5,1.5-2.2
			c0.5-0.9,1-1.8,1.5-2.8c0.9-1.9,1.7-4,2.1-6.1c0.2-1,0.4-2.1,0.5-3.1c0.1-0.9,0.2-1.8,0.2-2.7c0-0.3,0-0.6,0-0.9
			c0-0.3,0-0.6,0-0.9c0-0.7-0.1-1.5-0.1-2.2c0-0.2,0-0.4-0.1-0.6c-0.1-0.8-0.2-1.6-0.4-2.4c0,0,0-0.1,0-0.1c-0.4-2.1-1.1-4.1-1.9-6
			c-0.3-0.7-0.7-1.5-1.1-2.2c-2.7-5-6.9-9.1-11.8-11.9c-2.9-1.6-6.1-2.7-9.5-3.3C55,24.6,53.3,24.4,51.6,24.4L51.6,24.4z"/>
	</g>
</g>
</svg>
