<?xml version="1.0" encoding="utf-8"?>
<!-- Generator: Adobe Illustrator 20.1.0, SVG Export Plug-In . SVG Version: 6.00 Build 0)  -->
<svg version="1.1" id="Layer_1" xmlns="http://www.w3.org/2000/svg" xmlns:xlink="http://www.w3.org/1999/xlink" x="0px" y="0px"
	 viewBox="0 0 439 197" style="enable-background:new 0 0 439 197;" xml:space="preserve">
<style type="text/css">
	.st0{fill:#354759;}
	.st1{fill:none;}
	.st2{fill:#E0B1D2;}
	.st3{fill:#A94E9D;}
	.st4{fill:#FFFFFF;}
</style>
<g>
	<path class="st0" d="M222.8,33.3c0-2.9,1-5.3,3.1-7.4c2-2,4.5-3.1,7.4-3.1s5.3,1,7.4,3.1s3.1,4.5,3.1,7.4s-1,5.3-3.1,7.4
		s-4.5,3.1-7.4,3.1s-5.3-1-7.4-3.1C223.8,38.6,222.8,36.2,222.8,33.3z M224.2,51.6h18V110h-18V51.6z"/>
	<path class="st0" d="M294.9,66h-15.8v19.4c0,1.6,0.1,3.1,0.2,4.4c0.2,1.3,0.5,2.5,1.1,3.4c0.6,1,1.4,1.7,2.6,2.2
		c1.2,0.5,2.7,0.8,4.6,0.8c1,0,2.2-0.1,3.8-0.3c1.6-0.2,2.7-0.7,3.5-1.4v15c-2,0.7-4.1,1.2-6.2,1.4c-2.2,0.2-4.3,0.4-6.4,0.4
		c-3,0-5.8-0.3-8.4-1c-2.6-0.6-4.8-1.7-6.7-3.1c-1.9-1.4-3.4-3.2-4.5-5.5c-1.1-2.2-1.6-5-1.6-8.2V66h-11.5V51.6h11.5V34.4h18v17.3
		h15.8V66z"/>
	<path class="st0" d="M359.2,99.9c-2.9,3.7-6.5,6.5-10.9,8.5c-4.4,2-9,3-13.7,3c-4.5,0-8.7-0.7-12.7-2.2c-4-1.4-7.4-3.5-10.3-6.2
		c-2.9-2.7-5.2-5.9-6.9-9.7c-1.7-3.8-2.5-8-2.5-12.6c0-4.6,0.8-8.8,2.5-12.6c1.7-3.8,4-7,6.9-9.7c2.9-2.7,6.4-4.7,10.3-6.2
		c4-1.4,8.2-2.2,12.7-2.2c4.2,0,7.9,0.7,11.3,2.2c3.4,1.4,6.3,3.5,8.6,6.2c2.4,2.7,4.2,5.9,5.5,9.7c1.3,3.8,1.9,8,1.9,12.6v5.6
		h-41.8c0.7,3.4,2.3,6.2,4.7,8.2c2.4,2,5.4,3.1,8.9,3.1c3,0,5.5-0.7,7.5-2c2-1.3,3.8-3,5.3-5.1L359.2,99.9z M344,74.2
		c0.1-3-0.9-5.6-3-7.8c-2.1-2.2-4.8-3.2-8-3.2c-2,0-3.8,0.3-5.3,1c-1.5,0.6-2.8,1.5-3.9,2.5c-1.1,1-1.9,2.2-2.5,3.5
		c-0.6,1.3-0.9,2.7-1,4.1H344z"/>
	<path class="st0" d="M372.9,51.6h18V61h0.2c1.9-3.6,4.2-6.3,6.8-8.1c2.6-1.8,6-2.7,10-2.7c1,0,2.1,0,3.1,0.1c1,0.1,2,0.2,2.9,0.5
		v16.4c-1.3-0.4-2.5-0.7-3.8-0.9c-1.2-0.2-2.5-0.3-3.9-0.3c-3.4,0-6.2,0.5-8.2,1.4c-2,1-3.5,2.3-4.6,4c-1.1,1.7-1.8,3.8-2.1,6.2
		c-0.3,2.4-0.5,5-0.5,7.9V110h-18V51.6z"/>
	<g>
		<path class="st0" d="M55,114.3c0,3.8-0.4,7.1-1.1,10.1s-1.9,5.6-3.6,7.7c-1.7,2.1-3.9,3.8-6.7,4.9c-2.8,1.2-6.2,1.7-10.3,1.7
			c-1.4,0-2.8-0.1-4.2-0.2c-1.4-0.1-2.8-0.4-4.2-0.8l1-16c1.4,0.7,3,1.1,4.7,1.1c1.5,0,2.7-0.4,3.6-1.2c0.9-0.8,1.5-1.8,1.9-3
			c0.4-1.2,0.6-2.5,0.7-3.8c0.1-1.4,0.1-2.6,0.1-3.7V51.6h18V114.3z"/>
		<path class="st0" d="M124.2,110h-17.3V102h-0.2c-0.6,1.1-1.5,2.2-2.5,3.4c-1,1.1-2.2,2.1-3.7,3c-1.4,0.9-3.1,1.6-4.9,2.2
			c-1.8,0.6-3.8,0.8-6,0.8c-4.6,0-8.3-0.7-11.1-2.1c-2.8-1.4-5-3.3-6.6-5.8c-1.6-2.5-2.6-5.4-3.1-8.8c-0.5-3.4-0.8-7-0.8-10.9V51.6
			h18v28.6c0,1.7,0.1,3.4,0.2,5.2s0.5,3.5,1.1,5c0.6,1.5,1.5,2.8,2.8,3.7c1.2,1,3,1.4,5.3,1.4c2.3,0,4.2-0.4,5.6-1.3s2.5-2,3.3-3.4
			c0.8-1.4,1.3-3,1.5-4.7c0.2-1.8,0.4-3.6,0.4-5.5v-29h18V110z"/>
		<path class="st0" d="M35.2,33.3c0-2.9,1-5.3,3.1-7.4c2-2,4.5-3.1,7.4-3.1s5.3,1,7.4,3.1s3.1,4.5,3.1,7.4s-1,5.3-3.1,7.4
			s-4.5,3.1-7.4,3.1s-5.3-1-7.4-3.1C36.2,38.6,35.2,36.2,35.2,33.3z"/>
	</g>
	<g>
		<path class="st1" d="M203.5,81.4h-58.7c0,0,0,0.1,0,0.1h58.8C203.5,81.5,203.5,81.5,203.5,81.4z"/>
		<path class="st2" d="M201.5,75.7c-0.3-0.8-0.7-1.6-1.1-2.4h-52.7c-0.4,0.8-0.7,1.6-1.1,2.4c-0.8,2.1-1.5,4.2-1.9,6.5h58.7
			C203,79.9,202.4,77.7,201.5,75.7z"/>
		<path class="st2" d="M179.2,58.1h-10.1c-3.4,0.6-6.6,1.7-9.5,3.3h29C185.7,59.8,182.5,58.7,179.2,58.1z"/>
		<path class="st3" d="M188.6,61.4h-29c-5,2.8-9.1,6.9-11.8,11.9h52.7C197.8,68.3,193.6,64.2,188.6,61.4z"/>
		<path class="st3" d="M203.5,81.6h-58.8c-0.2,0.8-0.3,1.6-0.4,2.4h59.5C203.8,83.2,203.7,82.4,203.5,81.6z"/>
		<path class="st2" d="M204,84.5c0-0.2,0-0.4-0.1-0.6h-59.5c0,0.2-0.1,0.4-0.1,0.6c-0.1,0.7-0.1,1.5-0.1,2.2h60
			C204.1,86,204,85.3,204,84.5z"/>
		<path class="st2" d="M215.1,84H215c0,0.3,0,0.5,0.1,0.8C215.1,84.5,215.1,84.3,215.1,84z"/>
		<path class="st2" d="M201.2,100.5H147c0.5,1,0.9,1.9,1.5,2.8c0.5,0.8,1,1.5,1.5,2.2h48.2c0.5-0.7,1-1.5,1.5-2.2
			C200.3,102.4,200.8,101.4,201.2,100.5z"/>
		<path class="st3" d="M170.4,117.4c1.2,0.2,2.5,0.2,3.8,0.2s2.5-0.1,3.8-0.2c8.3-1,15.6-5.5,20.4-11.9H150
			C154.8,111.9,162,116.4,170.4,117.4z"/>
		<path class="st2" d="M186.3,48.5c-3.9-1.4-8-2.2-12.4-2.2c-5.4,0-10.6,1.2-15.2,3.4c4.8-1.9,10-3,15.4-3
			C178.4,46.7,182.5,47.3,186.3,48.5z"/>
		<path class="st2" d="M174.1,57.7c-1.7,0-3.4,0.2-5,0.4h10.1C177.5,57.8,175.8,57.7,174.1,57.7z"/>
		<path class="st3" d="M203.4,94.3c0.2-1,0.4-2.1,0.5-3.1c0.1-0.9,0.2-1.8,0.2-2.7c0-0.3,0-0.6,0-0.9c0-0.3,0-0.6,0-0.9h-60
			c0,0.3,0,0.6,0,0.9c0,0.3,0,0.6,0,0.9c0,0.9,0.1,1.8,0.2,2.7c0.1,1.1,0.3,2.1,0.5,3.1c0.5,2.1,1.2,4.2,2.1,6.1h54.2
			C202.2,98.5,202.9,96.5,203.4,94.3z"/>
		<path class="st0" d="M215,84c-1.5-16.8-13.1-30.7-28.7-35.5c-3.8-1.2-7.9-1.8-12.2-1.8c-5.5,0-10.7,1.1-15.4,3
			c-15,6.1-25.6,20.8-25.6,38c0,7.6,2.1,14.7,5.7,20.8l35.3,65.7l35.3-65.7c3.6-6.1,5.7-13.2,5.7-20.8c0-1,0-1.9-0.1-2.9
			C215,84.5,215,84.3,215,84z M177.9,117.4c-1.2,0.2-2.5,0.2-3.8,0.2s-2.5-0.1-3.8-0.2c-8.3-1-15.6-5.5-20.4-11.9
			c-0.5-0.7-1-1.5-1.5-2.2c-0.5-0.9-1-1.8-1.5-2.8c-0.9-1.9-1.7-4-2.1-6.1c-0.2-1-0.4-2.1-0.5-3.1c-0.1-0.9-0.2-1.8-0.2-2.7
			c0-0.3,0-0.6,0-0.9c0-0.3,0-0.6,0-0.9c0-0.7,0.1-1.5,0.1-2.2c0-0.2,0-0.4,0.1-0.6c0.1-0.8,0.2-1.6,0.4-2.4c0,0,0-0.1,0-0.1
			c0.4-2.1,1.1-4.1,1.9-6c0.3-0.7,0.7-1.5,1.1-2.2c2.7-5,6.9-9.1,11.8-11.9c2.9-1.6,6.1-2.7,9.5-3.3c1.6-0.3,3.3-0.4,5-0.4
			s3.4,0.2,5,0.4c3.4,0.6,6.6,1.7,9.5,3.3c5,2.8,9.1,6.9,11.8,11.9c0.4,0.7,0.7,1.4,1.1,2.2c0.8,1.9,1.5,3.9,1.9,6c0,0,0,0.1,0,0.1
			c0.2,0.8,0.3,1.6,0.4,2.4c0,0.2,0.1,0.4,0.1,0.6c0.1,0.7,0.1,1.5,0.1,2.2c0,0.3,0,0.6,0,0.9c0,0.3,0,0.6,0,0.9
			c0,0.9-0.1,1.8-0.2,2.7c-0.1,1.1-0.3,2.1-0.5,3.1c-0.5,2.1-1.2,4.2-2.1,6.1c-0.5,1-0.9,1.9-1.5,2.8c-0.5,0.8-1,1.5-1.5,2.2
			C193.5,111.9,186.2,116.4,177.9,117.4z"/>
	</g>
	<g>
		<path class="st4" d="M174.1,61.7c1.4,0,2.9,0.1,4.4,0.4c2.9,0.5,5.7,1.5,8.2,2.9c4.3,2.4,7.9,6,10.3,10.3c0.3,0.6,0.6,1.2,0.9,1.9
			c0.7,1.7,1.3,3.4,1.7,5.2c0,0.1,0,0.1,0,0.2c0.1,0.6,0.2,1.3,0.3,2.1l0,0.3c0,0.1,0,0.1,0,0.2c0.1,0.6,0.1,1.2,0.1,1.9l0,0.3
			c0,0.2,0,0.3,0,0.5c0,0.2,0,0.3,0,0.5l0,0.3c0,0.8-0.1,1.6-0.2,2.3c-0.1,0.9-0.3,1.8-0.5,2.7c-0.4,1.8-1,3.6-1.9,5.3
			c-0.5,1-0.9,1.7-1.3,2.4c-0.4,0.7-0.8,1.3-1.3,1.9c-4.2,5.7-10.6,9.4-17.6,10.3c-1.1,0.1-2.2,0.2-3.3,0.2s-2.1-0.1-3.3-0.2
			c-7-0.9-13.4-4.6-17.6-10.3c-0.5-0.6-0.9-1.3-1.3-1.9c-0.4-0.7-0.8-1.5-1.3-2.4c-0.8-1.8-1.5-3.5-1.9-5.3
			c-0.2-0.9-0.4-1.8-0.5-2.7c-0.1-0.8-0.1-1.5-0.2-2.3l0-0.3c0-0.2,0-0.3,0-0.5c0-0.2,0-0.3,0-0.5l0-0.3c0-0.7,0.1-1.4,0.1-1.9
			c0-0.1,0-0.1,0-0.2l0-0.3c0.1-0.8,0.2-1.4,0.3-2.1c0-0.1,0-0.1,0-0.2c0.4-1.8,0.9-3.5,1.7-5.2c0.3-0.7,0.6-1.3,0.9-1.9
			c2.4-4.4,5.9-7.9,10.3-10.3c2.6-1.4,5.3-2.4,8.2-2.9C171.2,61.8,172.7,61.7,174.1,61.7 M174.1,57.7c-1.7,0-3.4,0.2-5,0.4
			c-3.4,0.6-6.6,1.7-9.5,3.3c-5,2.8-9.1,6.9-11.8,11.9c-0.4,0.7-0.7,1.4-1.1,2.2c-0.8,1.9-1.5,3.9-1.9,6c0,0,0,0.1,0,0.1
			c-0.2,0.8-0.3,1.6-0.4,2.4c0,0.2-0.1,0.4-0.1,0.6c-0.1,0.7-0.1,1.5-0.1,2.2c0,0.3,0,0.6,0,0.9c0,0.3,0,0.6,0,0.9
			c0,0.9,0.1,1.8,0.2,2.7c0.1,1.1,0.3,2.1,0.5,3.1c0.5,2.1,1.2,4.2,2.1,6.1c0.5,1,0.9,1.9,1.5,2.8c0.5,0.8,1,1.5,1.5,2.2
			c4.8,6.4,12,10.9,20.4,11.9c1.2,0.2,2.5,0.2,3.8,0.2s2.5-0.1,3.8-0.2c8.3-1,15.6-5.5,20.4-11.9c0.5-0.7,1-1.5,1.5-2.2
			c0.5-0.9,1-1.8,1.5-2.8c0.9-1.9,1.7-4,2.1-6.1c0.2-1,0.4-2.1,0.5-3.1c0.1-0.9,0.2-1.8,0.2-2.7c0-0.3,0-0.6,0-0.9
			c0-0.3,0-0.6,0-0.9c0-0.7-0.1-1.5-0.1-2.2c0-0.2,0-0.4-0.1-0.6c-0.1-0.8-0.2-1.6-0.4-2.4c0,0,0-0.1,0-0.1c-0.4-2.1-1.1-4.1-1.9-6
			c-0.3-0.7-0.7-1.5-1.1-2.2c-2.7-5-6.9-9.1-11.8-11.9c-2.9-1.6-6.1-2.7-9.5-3.3C177.5,57.8,175.8,57.7,174.1,57.7L174.1,57.7z"/>
	</g>
</g>
</svg>
