<?xml version="1.0" encoding="utf-8"?>
<!-- Generator: Adobe Illustrator 20.1.0, SVG Export Plug-In . SVG Version: 6.00 Build 0)  -->
<svg version="1.1" id="Layer_1" xmlns="http://www.w3.org/2000/svg" xmlns:xlink="http://www.w3.org/1999/xlink" x="0px" y="0px"
	 viewBox="0 0 68 120" style="enable-background:new 0 0 68 120;" xml:space="preserve">
<style type="text/css">
	.st0{fill-rule:evenodd;clip-rule:evenodd;fill:#344659;}
	.st1{fill:#344659;}
</style>
<g>
	<g>
		<defs>
			<rect id="SVGID_1_" x="-5828.4" y="-1323.9" width="23816.7" height="15877.8"/>
		</defs>
		<clipPath id="SVGID_2_">
			<use xlink:href="#SVGID_1_"  style="overflow:visible;"/>
		</clipPath>
	</g>
</g>
<g>
	<g>
		<defs>
			<rect id="SVGID_3_" x="-5828.4" y="-1323.9" width="23816.7" height="15877.8"/>
		</defs>
		<clipPath id="SVGID_4_">
			<use xlink:href="#SVGID_3_"  style="overflow:visible;"/>
		</clipPath>
	</g>
</g>
<g>
	<g>
		<path class="st0" d="M58.1,62.5c0.4-5.4-2.5-8.5-5.1-9.5c-0.2-0.1-0.4-0.2-0.6-0.2c0,0-0.1,0-0.2,0c-0.4-0.1-0.8-0.2-1.2-0.2H17.8
			c-0.4,0-0.7,0.1-1.1,0.2l0.1-0.1c-2.8,0-6.7,4.1-6.9,10L9.2,98.2c0,2.2,2.3,4,5.1,4c2.6,0,4.7-1.3,4.9-3.3l1.3,9.7
			c0,2.4,9.2,3.1,11.6,3.1h2.4c2.4,0,12.5,0.3,12.3-3.1l2.5-14.5l-0.3,4.2c0,2.2,2.2,3.7,5,3.7c2.8,0,5-1.8,5.1-4L58.1,62.5z"/>
		<circle class="st1" cx="33.3" cy="28.8" r="20.6"/>
	</g>
</g>
</svg>
