<?xml version="1.0" encoding="utf-8"?>
<!-- Generator: Adobe Illustrator 20.1.0, SVG Export Plug-In . SVG Version: 6.00 Build 0)  -->
<svg version="1.1" id="Layer_1" xmlns="http://www.w3.org/2000/svg" xmlns:xlink="http://www.w3.org/1999/xlink" x="0px" y="0px"
	 viewBox="0 0 368.2 238.2" style="enable-background:new 0 0 368.2 238.2;" xml:space="preserve">
<style type="text/css">
	.st0{clip-path:url(#SVGID_2_);fill:#E0B1D2;}
	.st1{clip-path:url(#SVGID_4_);enable-background:new    ;}
	.st2{clip-path:url(#SVGID_6_);}
	.st3{clip-path:url(#SVGID_8_);}
	.st4{clip-path:url(#SVGID_10_);fill:#354759;}
	.st5{clip-path:url(#SVGID_12_);fill:#E0B1D2;}
	.st6{clip-path:url(#SVGID_14_);fill:#CBD1DD;}
	.st7{clip-path:url(#SVGID_16_);fill:#CBD1DD;}
	.st8{clip-path:url(#SVGID_18_);fill:#CBD1DD;}
	.st9{clip-path:url(#SVGID_20_);fill:#CBD1DD;}
	.st10{clip-path:url(#SVGID_22_);fill:#E0B1D2;}
	.st11{clip-path:url(#SVGID_24_);fill:#E0B1D2;}
	.st12{clip-path:url(#SVGID_26_);fill:#A94E9D;}
	.st13{clip-path:url(#SVGID_28_);fill:#A94E9D;}
	.st14{clip-path:url(#SVGID_30_);fill:#E0B1D2;}
	.st15{clip-path:url(#SVGID_32_);fill:#E0B1D2;}
	.st16{clip-path:url(#SVGID_34_);fill:#E0B1D2;}
	.st17{clip-path:url(#SVGID_36_);fill:#A94E9D;}
	.st18{clip-path:url(#SVGID_38_);fill:#E0B1D2;}
	.st19{clip-path:url(#SVGID_40_);fill:#E0B1D2;}
	.st20{clip-path:url(#SVGID_42_);fill:#A94E9D;}
	.st21{clip-path:url(#SVGID_44_);fill:#354759;}
	.st22{clip-path:url(#SVGID_46_);fill:#FFFFFF;}
</style>
<g>
	<g>
		<defs>
			<path id="SVGID_1_" d="M214.9,216.5v-49.6h-20.2c-1.3,0-2.4-0.5-3.3-1.4c-0.9-0.9-1.4-2-1.4-3.3v-20.2h-37.3v74.4H214.9z"/>
		</defs>
		<clipPath id="SVGID_2_">
			<use xlink:href="#SVGID_1_"  style="overflow:visible;"/>
		</clipPath>
		<rect x="147.8" y="137.1" class="st0" width="72.1" height="84.4"/>
	</g>
	<g>
		<defs>
			<polygon id="SVGID_3_" points="221.2,179.3 221.2,222.7 146.6,222.7 146.6,179.3 146.6,135.9 221.2,135.9 			"/>
		</defs>
		<clipPath id="SVGID_4_">
			<use xlink:href="#SVGID_3_"  style="overflow:visible;"/>
		</clipPath>
		<g class="st1">
			<g>
				<defs>
					<rect id="SVGID_5_" x="146.6" y="135.2" width="75" height="88"/>
				</defs>
				<clipPath id="SVGID_6_">
					<use xlink:href="#SVGID_5_"  style="overflow:visible;"/>
				</clipPath>
				<g class="st2">
					<defs>
						<path id="SVGID_7_" d="M217.9,154.3c0.9,0.9,1.7,2.1,2.3,3.7c0.6,1.6,1,3,1,4.3v55.8c0,1.3-0.5,2.4-1.4,3.3
							c-0.9,0.9-2,1.4-3.3,1.4h-65.2c-1.3,0-2.4-0.5-3.3-1.4c-0.9-0.9-1.4-2-1.4-3.3v-77.5c0-1.3,0.5-2.4,1.4-3.3
							c0.9-0.9,2-1.4,3.3-1.4h43.5c1.3,0,2.7,0.3,4.3,1c1.6,0.6,2.8,1.4,3.7,2.3L217.9,154.3z M214.9,216.5v-49.6h-20.2
							c-1.3,0-2.4-0.4-3.3-1.4c-0.9-0.9-1.4-2-1.4-3.3v-20.2h-37.3v74.4H214.9z M165.2,174.7c0-0.5,0.1-0.8,0.4-1.1
							c0.3-0.3,0.7-0.4,1.1-0.4H201c0.5,0,0.8,0.1,1.1,0.4c0.3,0.3,0.4,0.7,0.4,1.1v3.1c0,0.4-0.1,0.8-0.4,1.1
							c-0.3,0.3-0.7,0.4-1.1,0.4h-34.2c-0.5,0-0.8-0.1-1.1-0.4c-0.3-0.3-0.4-0.7-0.4-1.1V174.7z M201,185.5c0.5,0,0.8,0.1,1.1,0.4
							c0.3,0.3,0.4,0.7,0.4,1.1v3.1c0,0.5-0.1,0.8-0.4,1.1c-0.3,0.3-0.7,0.4-1.1,0.4h-34.2c-0.5,0-0.8-0.1-1.1-0.4
							c-0.3-0.3-0.4-0.7-0.4-1.1v-3.1c0-0.4,0.1-0.8,0.4-1.1c0.3-0.3,0.7-0.4,1.1-0.4H201z M201,197.9c0.5,0,0.8,0.1,1.1,0.4
							c0.3,0.3,0.4,0.7,0.4,1.1v3.1c0,0.4-0.1,0.8-0.4,1.1c-0.3,0.3-0.7,0.4-1.1,0.4h-34.2c-0.5,0-0.8-0.1-1.1-0.4
							c-0.3-0.3-0.4-0.7-0.4-1.1v-3.1c0-0.4,0.1-0.8,0.4-1.1c0.3-0.3,0.7-0.4,1.1-0.4H201z M196.3,142.5v18.2h18.3
							c-0.3-0.9-0.7-1.6-1.1-2l-15.2-15.2C197.9,143.2,197.2,142.8,196.3,142.5z"/>
					</defs>
					<clipPath id="SVGID_8_">
						<use xlink:href="#SVGID_7_"  style="overflow:visible;"/>
					</clipPath>
					<g class="st3">
						<defs>
							<rect id="SVGID_9_" x="146.6" y="135.2" width="75" height="88"/>
						</defs>
						<clipPath id="SVGID_10_">
							<use xlink:href="#SVGID_9_"  style="overflow:visible;"/>
						</clipPath>
						<rect x="141.6" y="130.9" class="st4" width="84.6" height="96.8"/>
					</g>
				</g>
			</g>
		</g>
	</g>
	<g>
		<defs>
			<path id="SVGID_11_" d="M196.3,142.5v18.2h18.3c-0.3-0.9-0.7-1.6-1.1-2l-15.2-15.2C197.9,143.2,197.2,142.8,196.3,142.5"/>
		</defs>
		<clipPath id="SVGID_12_">
			<use xlink:href="#SVGID_11_"  style="overflow:visible;"/>
		</clipPath>
		<rect x="191.3" y="137.5" class="st5" width="28.3" height="28.2"/>
	</g>
	<g>
		<defs>
			<path id="SVGID_13_" d="M289.4,148.2c0.6,0.6,1.1,1.4,1.6,2.5c0.4,1,0.7,2,0.7,2.9V191c0,0.9-0.3,1.6-0.9,2.2
				c-0.6,0.6-1.3,0.9-2.2,0.9h-43.7c-0.9,0-1.6-0.3-2.2-0.9c-0.6-0.6-0.9-1.3-0.9-2.2v-52c0-0.9,0.3-1.6,0.9-2.2
				c0.6-0.6,1.3-0.9,2.2-0.9h29.2c0.9,0,1.8,0.2,2.9,0.7c1,0.4,1.9,1,2.5,1.6L289.4,148.2z M287.4,189.9v-33.3h-13.5
				c-0.9,0-1.6-0.3-2.2-0.9c-0.6-0.6-0.9-1.3-0.9-2.2V140h-25v49.9H287.4z M254.1,161.9c0-0.3,0.1-0.6,0.3-0.8
				c0.2-0.2,0.4-0.3,0.7-0.3h22.9c0.3,0,0.6,0.1,0.7,0.3c0.2,0.2,0.3,0.4,0.3,0.8v2.1c0,0.3-0.1,0.6-0.3,0.7
				c-0.2,0.2-0.4,0.3-0.7,0.3h-22.9c-0.3,0-0.6-0.1-0.7-0.3c-0.2-0.2-0.3-0.4-0.3-0.7V161.9z M278.1,169.1c0.3,0,0.6,0.1,0.7,0.3
				c0.2,0.2,0.3,0.4,0.3,0.7v2.1c0,0.3-0.1,0.6-0.3,0.7c-0.2,0.2-0.4,0.3-0.7,0.3h-22.9c-0.3,0-0.6-0.1-0.7-0.3
				c-0.2-0.2-0.3-0.4-0.3-0.7v-2.1c0-0.3,0.1-0.6,0.3-0.7c0.2-0.2,0.4-0.3,0.7-0.3H278.1z M278.1,177.5c0.3,0,0.6,0.1,0.7,0.3
				c0.2,0.2,0.3,0.4,0.3,0.7v2.1c0,0.3-0.1,0.5-0.3,0.7c-0.2,0.2-0.4,0.3-0.7,0.3h-22.9c-0.3,0-0.6-0.1-0.7-0.3
				c-0.2-0.2-0.3-0.4-0.3-0.7v-2.1c0-0.3,0.1-0.6,0.3-0.7c0.2-0.2,0.4-0.3,0.7-0.3H278.1z M274.9,140.3v12.2h12.2
				c-0.2-0.6-0.5-1.1-0.7-1.3L276.3,141C276,140.7,275.6,140.5,274.9,140.3z"/>
		</defs>
		<clipPath id="SVGID_14_">
			<use xlink:href="#SVGID_13_"  style="overflow:visible;"/>
		</clipPath>
		<rect x="236.6" y="130.9" class="st6" width="60" height="68.2"/>
	</g>
	<g>
		<defs>
			<path id="SVGID_15_" d="M124.4,148.6c0.6,0.6,1.1,1.4,1.6,2.5c0.4,1,0.7,2,0.7,2.9v37.4c0,0.9-0.3,1.6-0.9,2.2
				c-0.6,0.6-1.3,0.9-2.2,0.9H79.7c-0.9,0-1.6-0.3-2.2-0.9c-0.6-0.6-0.9-1.3-0.9-2.2v-52c0-0.9,0.3-1.6,0.9-2.2
				c0.6-0.6,1.3-0.9,2.2-0.9h29.2c0.9,0,1.8,0.2,2.9,0.7c1,0.4,1.9,1,2.5,1.6L124.4,148.6z M122.4,190.3V157h-13.5
				c-0.9,0-1.6-0.3-2.2-0.9c-0.6-0.6-0.9-1.3-0.9-2.2v-13.5h-25v49.9H122.4z M89.1,162.2c0-0.3,0.1-0.6,0.3-0.8
				c0.2-0.2,0.4-0.3,0.7-0.3h22.9c0.3,0,0.6,0.1,0.7,0.3c0.2,0.2,0.3,0.4,0.3,0.8v2.1c0,0.3-0.1,0.6-0.3,0.7
				c-0.2,0.2-0.4,0.3-0.7,0.3H90.1c-0.3,0-0.6-0.1-0.7-0.3c-0.2-0.2-0.3-0.4-0.3-0.7V162.2z M113.1,169.5c0.3,0,0.6,0.1,0.7,0.3
				c0.2,0.2,0.3,0.4,0.3,0.7v2.1c0,0.3-0.1,0.6-0.3,0.7c-0.2,0.2-0.4,0.3-0.7,0.3H90.1c-0.3,0-0.6-0.1-0.7-0.3
				c-0.2-0.2-0.3-0.4-0.3-0.7v-2.1c0-0.3,0.1-0.6,0.3-0.7c0.2-0.2,0.4-0.3,0.7-0.3H113.1z M113.1,177.8c0.3,0,0.6,0.1,0.7,0.3
				c0.2,0.2,0.3,0.4,0.3,0.7v2.1c0,0.3-0.1,0.5-0.3,0.7c-0.2,0.2-0.4,0.3-0.7,0.3H90.1c-0.3,0-0.6-0.1-0.7-0.3
				c-0.2-0.2-0.3-0.4-0.3-0.7v-2.1c0-0.3,0.1-0.6,0.3-0.7c0.2-0.2,0.4-0.3,0.7-0.3H113.1z M109.9,140.7v12.2h12.2
				c-0.2-0.6-0.5-1.1-0.7-1.3l-10.2-10.2C111,141.1,110.6,140.9,109.9,140.7z"/>
		</defs>
		<clipPath id="SVGID_16_">
			<use xlink:href="#SVGID_15_"  style="overflow:visible;"/>
		</clipPath>
		<rect x="71.6" y="131.2" class="st7" width="60" height="68.2"/>
	</g>
	<g>
		<defs>
			<path id="SVGID_17_" d="M54.8,146.1c0.5,0.5,0.9,1.1,1.2,2c0.3,0.8,0.5,1.6,0.5,2.3v29.9c0,0.7-0.2,1.3-0.7,1.8
				c-0.5,0.5-1.1,0.7-1.8,0.7h-35c-0.7,0-1.3-0.2-1.8-0.7c-0.5-0.5-0.7-1.1-0.7-1.8v-41.6c0-0.7,0.2-1.3,0.7-1.8
				c0.5-0.5,1.1-0.7,1.8-0.7h23.3c0.7,0,1.5,0.2,2.3,0.5c0.8,0.3,1.5,0.8,2,1.2L54.8,146.1z M53.3,179.5v-26.6H42.4
				c-0.7,0-1.3-0.2-1.8-0.7c-0.5-0.5-0.7-1.1-0.7-1.8v-10.8h-20v39.9H53.3z M26.6,157c0-0.2,0.1-0.4,0.2-0.6
				c0.2-0.2,0.4-0.2,0.6-0.2h18.3c0.2,0,0.4,0.1,0.6,0.2c0.2,0.2,0.2,0.4,0.2,0.6v1.7c0,0.2-0.1,0.4-0.2,0.6
				c-0.2,0.2-0.4,0.2-0.6,0.2H27.4c-0.2,0-0.4-0.1-0.6-0.2c-0.2-0.2-0.2-0.4-0.2-0.6V157z M45.8,162.8c0.2,0,0.4,0.1,0.6,0.2
				c0.2,0.2,0.2,0.4,0.2,0.6v1.7c0,0.2-0.1,0.4-0.2,0.6c-0.2,0.2-0.4,0.2-0.6,0.2H27.4c-0.2,0-0.4-0.1-0.6-0.2
				c-0.2-0.2-0.2-0.4-0.2-0.6v-1.7c0-0.2,0.1-0.4,0.2-0.6c0.2-0.2,0.4-0.2,0.6-0.2H45.8z M45.8,169.5c0.2,0,0.4,0.1,0.6,0.2
				c0.2,0.2,0.2,0.4,0.2,0.6v1.7c0,0.2-0.1,0.4-0.2,0.6c-0.2,0.2-0.4,0.2-0.6,0.2H27.4c-0.2,0-0.4-0.1-0.6-0.2
				c-0.2-0.2-0.2-0.4-0.2-0.6v-1.7c0-0.2,0.1-0.4,0.2-0.6c0.2-0.2,0.4-0.2,0.6-0.2H45.8z M43.3,139.8v9.8h9.8
				c-0.2-0.5-0.4-0.9-0.6-1.1l-8.1-8.1C44.1,140.1,43.8,139.9,43.3,139.8z"/>
		</defs>
		<clipPath id="SVGID_18_">
			<use xlink:href="#SVGID_17_"  style="overflow:visible;"/>
		</clipPath>
		<rect x="11.6" y="131.2" class="st8" width="50" height="56.6"/>
	</g>
	<g>
		<defs>
			<path id="SVGID_19_" d="M349.8,146.1c0.5,0.5,0.9,1.1,1.2,2c0.3,0.8,0.5,1.6,0.5,2.3v29.9c0,0.7-0.2,1.3-0.7,1.8
				c-0.5,0.5-1.1,0.7-1.8,0.7h-35c-0.7,0-1.3-0.2-1.8-0.7c-0.5-0.5-0.7-1.1-0.7-1.8v-41.6c0-0.7,0.2-1.3,0.7-1.8
				c0.5-0.5,1.1-0.7,1.8-0.7h23.3c0.7,0,1.5,0.2,2.3,0.5c0.8,0.3,1.5,0.8,2,1.2L349.8,146.1z M348.3,179.5v-26.6h-10.8
				c-0.7,0-1.3-0.2-1.8-0.7c-0.5-0.5-0.7-1.1-0.7-1.8v-10.8h-20v39.9H348.3z M321.6,157c0-0.2,0.1-0.4,0.2-0.6
				c0.2-0.2,0.4-0.2,0.6-0.2h18.3c0.2,0,0.4,0.1,0.6,0.2c0.2,0.2,0.2,0.4,0.2,0.6v1.7c0,0.2-0.1,0.4-0.2,0.6
				c-0.2,0.2-0.4,0.2-0.6,0.2h-18.3c-0.2,0-0.4-0.1-0.6-0.2c-0.2-0.2-0.2-0.4-0.2-0.6V157z M340.8,162.8c0.2,0,0.4,0.1,0.6,0.2
				c0.2,0.2,0.2,0.4,0.2,0.6v1.7c0,0.2-0.1,0.4-0.2,0.6c-0.2,0.2-0.4,0.2-0.6,0.2h-18.3c-0.2,0-0.4-0.1-0.6-0.2
				c-0.2-0.2-0.2-0.4-0.2-0.6v-1.7c0-0.2,0.1-0.4,0.2-0.6c0.2-0.2,0.4-0.2,0.6-0.2H340.8z M340.8,169.5c0.2,0,0.4,0.1,0.6,0.2
				c0.2,0.2,0.2,0.4,0.2,0.6v1.7c0,0.2-0.1,0.4-0.2,0.6c-0.2,0.2-0.4,0.2-0.6,0.2h-18.3c-0.2,0-0.4-0.1-0.6-0.2
				c-0.2-0.2-0.2-0.4-0.2-0.6v-1.7c0-0.2,0.1-0.4,0.2-0.6c0.2-0.2,0.4-0.2,0.6-0.2H340.8z M338.3,139.8v9.8h9.8
				c-0.2-0.5-0.4-0.9-0.6-1.1l-8.1-8.1C339.1,140.1,338.8,139.9,338.3,139.8z"/>
		</defs>
		<clipPath id="SVGID_20_">
			<use xlink:href="#SVGID_19_"  style="overflow:visible;"/>
		</clipPath>
		<rect x="306.6" y="131.2" class="st9" width="50" height="56.6"/>
	</g>
	<g>
		<defs>
			<path id="SVGID_21_" d="M205.9,38.7c-0.3-0.6-0.6-1.2-0.9-1.7h-43.4c-0.3,0.6-0.6,1.1-0.9,1.7c-0.7,1.5-1.2,3.1-1.6,4.7h48.3
				C207.2,41.7,206.6,40.2,205.9,38.7"/>
		</defs>
		<clipPath id="SVGID_22_">
			<use xlink:href="#SVGID_21_"  style="overflow:visible;"/>
		</clipPath>
		<rect x="154.2" y="31.9" class="st10" width="58.3" height="16.4"/>
	</g>
	<g>
		<defs>
			<path id="SVGID_23_" d="M187.5,24.9h-8.3c-2.8,0.5-5.4,1.4-7.8,2.6h23.9C192.9,26.2,190.3,25.3,187.5,24.9"/>
		</defs>
		<clipPath id="SVGID_24_">
			<use xlink:href="#SVGID_23_"  style="overflow:visible;"/>
		</clipPath>
		<rect x="166.4" y="19.9" class="st11" width="33.9" height="12.6"/>
	</g>
	<g>
		<defs>
			<path id="SVGID_25_" d="M195.3,27.5h-23.9c-4.1,2.2-7.5,5.5-9.7,9.5H205C202.8,33,199.4,29.7,195.3,27.5"/>
		</defs>
		<clipPath id="SVGID_26_">
			<use xlink:href="#SVGID_25_"  style="overflow:visible;"/>
		</clipPath>
		<rect x="156.7" y="22.5" class="st12" width="53.4" height="19.5"/>
	</g>
	<g>
		<defs>
			<path id="SVGID_27_" d="M207.5,43.5h-48.3c-0.1,0.6-0.2,1.3-0.3,1.9h49C207.8,44.8,207.7,44.1,207.5,43.5"/>
		</defs>
		<clipPath id="SVGID_28_">
			<use xlink:href="#SVGID_27_"  style="overflow:visible;"/>
		</clipPath>
		<rect x="153.9" y="38.5" class="st13" width="59" height="11.9"/>
	</g>
	<g>
		<defs>
			<path id="SVGID_29_" d="M207.9,45.9c0-0.2,0-0.3-0.1-0.4h-49c0,0.1,0,0.3-0.1,0.4c-0.1,0.6-0.1,1.2-0.1,1.8H208
				C208,47,208,46.4,207.9,45.9"/>
		</defs>
		<clipPath id="SVGID_30_">
			<use xlink:href="#SVGID_29_"  style="overflow:visible;"/>
		</clipPath>
		<rect x="153.7" y="40.4" class="st14" width="59.3" height="12.2"/>
	</g>
	<g>
		<defs>
			<path id="SVGID_31_" d="M217.3,45.4H217c0.1,0.4,0.1,0.8,0.1,1.2C217.2,46.2,217.2,45.8,217.3,45.4"/>
		</defs>
		<clipPath id="SVGID_32_">
			<use xlink:href="#SVGID_31_"  style="overflow:visible;"/>
		</clipPath>
		<rect x="212" y="40.4" class="st15" width="10.4" height="11.2"/>
	</g>
	<g>
		<defs>
			<path id="SVGID_33_" d="M205.7,58.5h-44.6c0.4,0.8,0.8,1.5,1.2,2.2c0.4,0.6,0.8,1.2,1.2,1.8h39.7c0.4-0.6,0.9-1.2,1.2-1.8
				C204.9,60,205.3,59.3,205.7,58.5"/>
		</defs>
		<clipPath id="SVGID_34_">
			<use xlink:href="#SVGID_33_"  style="overflow:visible;"/>
		</clipPath>
		<rect x="156.1" y="53.5" class="st16" width="54.6" height="14"/>
	</g>
	<g>
		<defs>
			<path id="SVGID_35_" d="M180.3,72c1,0.1,2,0.2,3.1,0.2c1,0,2.1-0.1,3.1-0.2c6.8-0.8,12.8-4.4,16.7-9.5h-39.7
				C167.4,67.6,173.4,71.1,180.3,72"/>
		</defs>
		<clipPath id="SVGID_36_">
			<use xlink:href="#SVGID_35_"  style="overflow:visible;"/>
		</clipPath>
		<rect x="158.5" y="57.5" class="st17" width="49.7" height="19.7"/>
	</g>
	<g>
		<defs>
			<path id="SVGID_37_" d="M193.4,17.2c-3.2-1.1-6.6-1.8-10.2-1.8c-4.5,0-8.7,1-12.5,2.7c3.9-1.5,8.2-2.4,12.7-2.4
				C186.9,15.8,190.2,16.3,193.4,17.2"/>
		</defs>
		<clipPath id="SVGID_38_">
			<use xlink:href="#SVGID_37_"  style="overflow:visible;"/>
		</clipPath>
		<rect x="165.7" y="10.5" class="st18" width="32.7" height="12.7"/>
	</g>
	<g>
		<defs>
			<path id="SVGID_39_" d="M183.4,24.5c-1.4,0-2.8,0.2-4.1,0.6h8.3C186.2,24.7,184.8,24.5,183.4,24.5"/>
		</defs>
		<clipPath id="SVGID_40_">
			<use xlink:href="#SVGID_39_"  style="overflow:visible;"/>
		</clipPath>
		<rect x="174.2" y="19.5" class="st19" width="18.3" height="10.6"/>
	</g>
	<g>
		<defs>
			<path id="SVGID_41_" d="M207.4,53.6c0.2-0.8,0.3-1.6,0.4-2.5c0.1-0.7,0.1-1.4,0.2-2.1c0-0.2,0-0.5,0-0.7c0-0.2,0-0.5,0-0.7h-49.3
				c0,0.2,0,0.5,0,0.7c0,0.2,0,0.5,0,0.7c0,0.7,0.1,1.4,0.2,2.1c0.1,0.8,0.3,1.7,0.4,2.5c0.4,1.7,1,3.3,1.8,4.9h44.6
				C206.4,57,207,55.3,207.4,53.6"/>
		</defs>
		<clipPath id="SVGID_42_">
			<use xlink:href="#SVGID_41_"  style="overflow:visible;"/>
		</clipPath>
		<rect x="153.7" y="42.6" class="st20" width="59.4" height="20.9"/>
	</g>
	<g>
		<defs>
			<path id="SVGID_43_" d="M217,45.4c-1.2-13.3-10.8-24.3-23.6-28.2c-3.2-0.9-6.5-1.5-10-1.5c-4.5,0-8.8,0.9-12.7,2.4
				c-12.3,4.8-21,16.5-21,30.2c0,6,1.7,11.7,4.7,16.5l29.1,52.2l29.1-52.2c3-4.8,4.7-10.5,4.7-16.5c0-0.8,0-1.5-0.1-2.3
				C217,45.9,217,45.6,217,45.4 M186.5,72c-1,0.1-2,0.2-3.1,0.2c-1,0-2.1-0.1-3.1-0.2c-6.8-0.8-12.8-4.4-16.7-9.5
				c-0.4-0.6-0.9-1.2-1.2-1.8c-0.5-0.7-0.8-1.5-1.2-2.2c-0.8-1.5-1.4-3.2-1.8-4.9c-0.2-0.8-0.3-1.6-0.4-2.5
				c-0.1-0.7-0.1-1.4-0.2-2.1c0-0.2,0-0.5,0-0.7c0-0.2,0-0.5,0-0.7c0-0.6,0.1-1.2,0.1-1.8c0-0.2,0-0.3,0.1-0.4
				c0.1-0.6,0.2-1.3,0.3-1.9c0,0,0-0.1,0-0.1c0.4-1.6,0.9-3.2,1.6-4.7c0.3-0.6,0.6-1.2,0.9-1.7c2.2-4,5.6-7.3,9.7-9.5
				c2.4-1.3,5-2.2,7.8-2.6c1.3-0.2,2.7-0.3,4.1-0.3c1.4,0,2.8,0.1,4.1,0.3c2.8,0.5,5.4,1.4,7.8,2.6c4.1,2.2,7.5,5.5,9.7,9.5
				c0.3,0.6,0.6,1.1,0.9,1.7c0.7,1.5,1.2,3.1,1.6,4.7c0,0,0,0.1,0,0.1c0.1,0.6,0.2,1.3,0.3,1.9c0,0.2,0,0.3,0.1,0.4
				c0.1,0.6,0.1,1.2,0.1,1.8c0,0.2,0,0.5,0,0.7c0,0.2,0,0.5,0,0.7c0,0.7-0.1,1.4-0.2,2.1c-0.1,0.8-0.3,1.7-0.4,2.5
				c-0.4,1.7-1,3.3-1.8,4.9c-0.4,0.8-0.8,1.5-1.2,2.2c-0.4,0.6-0.8,1.2-1.2,1.8C199.3,67.6,193.3,71.1,186.5,72"/>
		</defs>
		<clipPath id="SVGID_44_">
			<use xlink:href="#SVGID_43_"  style="overflow:visible;"/>
		</clipPath>
		<rect x="144.6" y="10.8" class="st21" width="77.5" height="111.2"/>
	</g>
	<g>
		<defs>
			<path id="SVGID_45_" d="M183.4,27.7c1.2,0,2.4,0.1,3.6,0.3c2.4,0.4,4.6,1.2,6.8,2.3c3.6,1.9,6.5,4.7,8.4,8.2
				c0.3,0.5,0.5,0.9,0.8,1.5c0.6,1.3,1.1,2.7,1.4,4.1c0,0,0,0.1,0,0.1c0.1,0.5,0.2,1,0.3,1.6l0,0.2c0,0.1,0,0.1,0,0.2
				c0,0.4,0.1,0.9,0.1,1.5l0,0.2c0,0.1,0,0.3,0,0.4c0,0.1,0,0.3,0,0.4l0,0.2c0,0.6-0.1,1.2-0.1,1.9c-0.1,0.7-0.2,1.4-0.4,2.1
				c-0.3,1.4-0.8,2.8-1.5,4.2c-0.4,0.8-0.7,1.4-1.1,1.9c-0.3,0.5-0.7,1-1.1,1.5c-3.5,4.5-8.8,7.5-14.5,8.2c-0.9,0.1-1.8,0.2-2.7,0.2
				c-0.9,0-1.7-0.1-2.7-0.2c-5.8-0.7-11-3.7-14.5-8.2c-0.4-0.5-0.7-1-1.1-1.5c-0.3-0.5-0.7-1.2-1.1-1.9c-0.7-1.4-1.2-2.8-1.5-4.2
				c-0.2-0.7-0.3-1.4-0.4-2.1c-0.1-0.6-0.1-1.2-0.1-1.9l0-0.2c0-0.1,0-0.3,0-0.4c0-0.1,0-0.3,0-0.4l0-0.2c0-0.6,0-1.1,0.1-1.5
				c0-0.1,0-0.1,0-0.2l0-0.2c0.1-0.6,0.2-1.1,0.3-1.6c0,0,0-0.1,0-0.1c0.3-1.4,0.8-2.8,1.4-4.1c0.3-0.6,0.5-1,0.8-1.5
				c2-3.5,4.9-6.3,8.4-8.2c2.1-1.1,4.4-1.9,6.8-2.3C181,27.8,182.2,27.7,183.4,27.7 M183.4,24.5c-1.4,0-2.8,0.1-4.1,0.3
				c-2.8,0.5-5.4,1.4-7.8,2.6c-4.1,2.2-7.5,5.5-9.7,9.5c-0.3,0.6-0.6,1.1-0.9,1.7c-0.7,1.5-1.2,3.1-1.6,4.7c0,0,0,0.1,0,0.1
				c-0.1,0.6-0.2,1.3-0.3,1.9c0,0.2,0,0.3-0.1,0.4c-0.1,0.6-0.1,1.2-0.1,1.8c0,0.2,0,0.5,0,0.7c0,0.2,0,0.5,0,0.7
				c0,0.7,0.1,1.4,0.2,2.1c0.1,0.8,0.3,1.7,0.4,2.5c0.4,1.7,1,3.3,1.8,4.9c0.4,0.8,0.8,1.5,1.2,2.2c0.4,0.6,0.8,1.2,1.2,1.8
				c3.9,5.1,9.9,8.6,16.7,9.5c1,0.1,2,0.2,3.1,0.2c1,0,2.1-0.1,3.1-0.2c6.8-0.8,12.8-4.4,16.7-9.5c0.4-0.6,0.9-1.2,1.2-1.8
				c0.5-0.7,0.8-1.5,1.2-2.2c0.8-1.5,1.4-3.2,1.8-4.9c0.2-0.8,0.3-1.6,0.4-2.5c0.1-0.7,0.1-1.4,0.2-2.1c0-0.2,0-0.5,0-0.7
				c0-0.2,0-0.5,0-0.7c0-0.6-0.1-1.2-0.1-1.8c0-0.2,0-0.3-0.1-0.4c-0.1-0.6-0.2-1.3-0.3-1.9c0,0,0-0.1,0-0.1
				c-0.4-1.6-0.9-3.2-1.6-4.7c-0.3-0.6-0.6-1.2-0.9-1.7c-2.2-4-5.6-7.3-9.7-9.5c-2.4-1.3-5-2.2-7.8-2.6
				C186.2,24.6,184.8,24.5,183.4,24.5"/>
		</defs>
		<clipPath id="SVGID_46_">
			<use xlink:href="#SVGID_45_"  style="overflow:visible;"/>
		</clipPath>
		<rect x="153.7" y="19.5" class="st22" width="59.4" height="57.6"/>
	</g>
</g>
</svg>
