<?xml version="1.0" encoding="utf-8"?>
<!-- Generator: Adobe Illustrator 20.1.0, SVG Export Plug-In . SVG Version: 6.00 Build 0)  -->
<svg version="1.1" id="Layer_1" xmlns="http://www.w3.org/2000/svg" xmlns:xlink="http://www.w3.org/1999/xlink" x="0px" y="0px"
	 viewBox="0 0 24 20" style="enable-background:new 0 0 24 20;" xml:space="preserve">
<style type="text/css">
	.st0{clip-path:url(#SVGID_2_);}
	.st1{clip-path:url(#SVGID_4_);fill:#E1B2D3;}
	.st2{clip-path:url(#SVGID_6_);}
	.st3{clip-path:url(#SVGID_8_);fill:#E1B2D3;}
</style>
<g>
	<g>
		<defs>
			<path id="SVGID_1_" d="M17.3,2.8c0.1,0.3,0.1,0.5-0.1,0.7l-5.2,5.2v7.8c0,0.3-0.1,0.5-0.4,0.6c-0.1,0-0.2,0.1-0.3,0.1
				c-0.2,0-0.4-0.1-0.5-0.2L8,14.3c-0.1-0.1-0.2-0.3-0.2-0.5V8.7L2.6,3.6C2.4,3.4,2.3,3.1,2.4,2.8c0.1-0.3,0.3-0.4,0.6-0.4h13.6
				C17,2.4,17.2,2.6,17.3,2.8"/>
		</defs>
		<clipPath id="SVGID_2_">
			<use xlink:href="#SVGID_1_"  style="overflow:visible;"/>
		</clipPath>
		<g class="st0">
			<defs>
				<rect id="SVGID_3_" x="-24.6" y="-184.6" width="1440" height="960"/>
			</defs>
			<clipPath id="SVGID_4_">
				<use xlink:href="#SVGID_3_"  style="overflow:visible;"/>
			</clipPath>
			<rect x="-2.6" y="-2.6" class="st1" width="25" height="24.8"/>
		</g>
	</g>
	<g>
		<defs>
			<path id="SVGID_5_" d="M21.6,16c0,0.2-0.1,0.3-0.2,0.5l-0.9,0.9c-0.1,0.1-0.3,0.2-0.5,0.2c-0.2,0-0.3-0.1-0.5-0.2l-2-2l-2,2
				c-0.1,0.1-0.3,0.2-0.5,0.2c-0.2,0-0.3-0.1-0.5-0.2l-0.9-0.9c-0.1-0.1-0.2-0.3-0.2-0.5c0-0.2,0.1-0.3,0.2-0.5l2-2l-2-2
				c-0.1-0.1-0.2-0.3-0.2-0.5c0-0.2,0.1-0.3,0.2-0.5l0.9-0.9c0.1-0.1,0.3-0.2,0.5-0.2c0.2,0,0.3,0.1,0.5,0.2l2,2l2-2
				c0.1-0.1,0.3-0.2,0.5-0.2c0.2,0,0.3,0.1,0.5,0.2l0.9,0.9c0.1,0.1,0.2,0.3,0.2,0.5c0,0.2-0.1,0.3-0.2,0.5l-2,2l2,2
				C21.6,15.6,21.6,15.8,21.6,16"/>
		</defs>
		<clipPath id="SVGID_6_">
			<use xlink:href="#SVGID_5_"  style="overflow:visible;"/>
		</clipPath>
		<g class="st2">
			<defs>
				<rect id="SVGID_7_" x="-24.6" y="-184.6" width="1440" height="960"/>
			</defs>
			<clipPath id="SVGID_8_">
				<use xlink:href="#SVGID_7_"  style="overflow:visible;"/>
			</clipPath>
			<rect x="8.4" y="4.4" class="st3" width="18.3" height="18.1"/>
		</g>
	</g>
</g>
</svg>
